<svg xmlns="http://www.w3.org/2000/svg" fill="gray" viewBox="0 0 1000 1000" xml:space="preserve"><path d="M929.7 735.2c8.9-16 16.6-32.6 23.8-49.8C977.8 626.7 990 564.2 990 500c0-270-219.7-489.7-489.7-489.7C230.2 10.3 10 230 10 500s219.7 489.7 489.7 489.7c26.6 0 52.6-2.2 78.6-6.1 55.3-8.9 107.9-27.1 156.6-53.7 25.5 31.5 64.2 52 107.9 52 76.4 0 138.3-62 138.3-138.3 0-44.2-19.9-83.5-51.4-108.4zM725.5 915.6c-46.5 25.5-96.8 42.6-149.4 50.9-24.9 3.9-50.4 6.1-75.8 6.1-260.6 0-473.1-212.5-473.1-473.1S239.7 26.4 500.3 26.4s473.1 212.5 473.1 473.1c0 62-11.6 122.3-34.9 179.3-6.6 15.5-13.8 31-22.1 46.5-21-13.3-45.9-20.5-73-20.5-76.4 0-138.3 62-138.3 138.3-.6 26.5 7.1 51.4 20.4 72.5zm216.4-58.1h-78v87.4H823v-87.4h-79.1v-38.2h78.6v-78.6h40.9v78.6H942v38.2z"/><path d="M623.1 382.1c0 73-55.3 132.8-122.8 132.8-68.1 0-122.8-59.2-122.8-132.8 0-73 55.3-132.8 122.8-132.8 67.5.6 122.8 59.8 122.8 132.8zm-32.1 114c-22.7 26.6-54.8 38.7-90.8 38.7s-68.6-12.2-90.8-38.7c-86.9 36-148.3 121.2-148.3 221.3v7.7h478.1v-7.7c.1-99.5-61.3-185.3-148.2-221.3z"/></svg>