<svg xmlns="http://www.w3.org/2000/svg" viewBox="0 0 1000 1000" xml:space="preserve"><path d="M663.3 336.7V119.8H119.8v216.9h543.5zM500 880.3c44.2 0 82.5-16.2 114.8-48.5s48.5-70.6 48.5-114.8-16.1-82.5-48.5-114.8-70.7-48.5-114.8-48.5-82.4 16.2-114.8 48.5c-32.4 32.3-48.5 70.6-48.5 114.8s16.2 82.5 48.5 114.8 70.6 48.5 114.8 48.5zM773.1 10 990 226.9v653.3c0 28.9-11.1 54.4-33.2 76.5s-47.6 33.2-76.5 33.2H119.8c-30.6 0-56.6-11.1-77.9-33.2-21.3-22-31.9-47.5-31.9-76.4V119.7c0-28.9 10.6-54.4 31.9-76.5C63.2 21.1 89.1 10 119.8 10h653.3z"/></svg>