<svg xmlns="http://www.w3.org/2000/svg" viewBox="0 0 1000 1000" xml:space="preserve"><path d="M500 10C229.4 10 10 229.4 10 500s219.4 490 490 490 490-219.4 490-490S770.6 10 500 10zm265.1 663.7c25.2 25.2 25.2 66.2 0 91.4-25.2 25.2-66.2 25.2-91.4 0L500 591.4 326.3 765.1c-25.2 25.2-66.2 25.2-91.4 0-25.2-25.2-25.2-66.2 0-91.4L408.6 500 234.9 326.3c-25.2-25.2-25.2-66.2 0-91.4 25.2-25.2 66.2-25.2 91.4 0L500 408.6l173.7-173.7c25.2-25.2 66.2-25.2 91.4 0 25.2 25.2 25.2 66.2 0 91.4L591.4 500l173.7 173.7z"/></svg>